<?xml version="1.0" encoding="utf-8" standalone="no"?>
<!DOCTYPE svg PUBLIC "-//W3C//DTD SVG 1.1//EN"
  "http://www.w3.org/Graphics/SVG/1.1/DTD/svg11.dtd">
<svg xmlns:xlink="http://www.w3.org/1999/xlink" width="712.289063pt" height="424.474375pt" viewBox="0 0 712.289063 424.474375" xmlns="http://www.w3.org/2000/svg" version="1.1">
 <metadata>
  <rdf:RDF xmlns:dc="http://purl.org/dc/elements/1.1/" xmlns:cc="http://creativecommons.org/ns#" xmlns:rdf="http://www.w3.org/1999/02/22-rdf-syntax-ns#">
   <cc:Work>
    <dc:type rdf:resource="http://purl.org/dc/dcmitype/StillImage"/>
    <dc:date>2026-06-21T16:04:07.764818</dc:date>
    <dc:format>image/svg+xml</dc:format>
    <dc:creator>
     <cc:Agent>
      <dc:title>Matplotlib v3.10.0, https://matplotlib.org/</dc:title>
     </cc:Agent>
    </dc:creator>
   </cc:Work>
  </rdf:RDF>
 </metadata>
 <defs>
  <style type="text/css">*{stroke-linejoin: round; stroke-linecap: butt}</style>
 </defs>
 <g id="figure_1">
  <g id="patch_1">
   <path d="M 0 424.474375 
L 712.289063 424.474375 
L 712.289063 0 
L 0 0 
z
" style="fill: #ffffff"/>
  </g>
  <g id="axes_1">
   <g id="patch_2">
    <path d="M 50.14375 386.918125 
L 687.59375 386.918125 
L 687.59375 22.318125 
L 50.14375 22.318125 
z
" style="fill: #ffffff"/>
   </g>
   <g id="matplotlib.axis_1">
    <g id="xtick_1">
     <g id="line2d_1">
      <path d="M 108.09375 386.918125 
L 108.09375 22.318125 
" clip-path="url(#p7445cdaac4)" style="fill: none; stroke: #b0b0b0; stroke-opacity: 0.3; stroke-width: 0.8; stroke-linecap: square"/>
     </g>
     <g id="line2d_2">
      <defs>
       <path id="m1415accf42" d="M 0 0 
L 0 3.5 
" style="stroke: #000000; stroke-width: 0.8"/>
      </defs>
      <g>
       <use xlink:href="#m1415accf42" x="108.09375" y="386.918125" style="stroke: #000000; stroke-width: 0.8"/>
      </g>
     </g>
     <g id="text_1">
      <!-- 2005.0 -->
      <g transform="translate(90.598438 401.516562) scale(0.1 -0.1)">
       <defs>
        <path id="DejaVuSans-32" d="M 1228 531 
L 3431 531 
L 3431 0 
L 469 0 
L 469 531 
Q 828 903 1448 1529 
Q 2069 2156 2228 2338 
Q 2531 2678 2651 2914 
Q 2772 3150 2772 3378 
Q 2772 3750 2511 3984 
Q 2250 4219 1831 4219 
Q 1534 4219 1204 4116 
Q 875 4013 500 3803 
L 500 4441 
Q 881 4594 1212 4672 
Q 1544 4750 1819 4750 
Q 2544 4750 2975 4387 
Q 3406 4025 3406 3419 
Q 3406 3131 3298 2873 
Q 3191 2616 2906 2266 
Q 2828 2175 2409 1742 
Q 1991 1309 1228 531 
z
" transform="scale(0.015625)"/>
        <path id="DejaVuSans-30" d="M 2034 4250 
Q 1547 4250 1301 3770 
Q 1056 3291 1056 2328 
Q 1056 1369 1301 889 
Q 1547 409 2034 409 
Q 2525 409 2770 889 
Q 3016 1369 3016 2328 
Q 3016 3291 2770 3770 
Q 2525 4250 2034 4250 
z
M 2034 4750 
Q 2819 4750 3233 4129 
Q 3647 3509 3647 2328 
Q 3647 1150 3233 529 
Q 2819 -91 2034 -91 
Q 1250 -91 836 529 
Q 422 1150 422 2328 
Q 422 3509 836 4129 
Q 1250 4750 2034 4750 
z
" transform="scale(0.015625)"/>
        <path id="DejaVuSans-35" d="M 691 4666 
L 3169 4666 
L 3169 4134 
L 1269 4134 
L 1269 2991 
Q 1406 3038 1543 3061 
Q 1681 3084 1819 3084 
Q 2600 3084 3056 2656 
Q 3513 2228 3513 1497 
Q 3513 744 3044 326 
Q 2575 -91 1722 -91 
Q 1428 -91 1123 -41 
Q 819 9 494 109 
L 494 744 
Q 775 591 1075 516 
Q 1375 441 1709 441 
Q 2250 441 2565 725 
Q 2881 1009 2881 1497 
Q 2881 1984 2565 2268 
Q 2250 2553 1709 2553 
Q 1456 2553 1204 2497 
Q 953 2441 691 2322 
L 691 4666 
z
" transform="scale(0.015625)"/>
        <path id="DejaVuSans-2e" d="M 684 794 
L 1344 794 
L 1344 0 
L 684 0 
L 684 794 
z
" transform="scale(0.015625)"/>
       </defs>
       <use xlink:href="#DejaVuSans-32"/>
       <use xlink:href="#DejaVuSans-30" transform="translate(63.623047 0)"/>
       <use xlink:href="#DejaVuSans-30" transform="translate(127.246094 0)"/>
       <use xlink:href="#DejaVuSans-35" transform="translate(190.869141 0)"/>
       <use xlink:href="#DejaVuSans-2e" transform="translate(254.492188 0)"/>
       <use xlink:href="#DejaVuSans-30" transform="translate(286.279297 0)"/>
      </g>
     </g>
    </g>
    <g id="xtick_2">
     <g id="line2d_3">
      <path d="M 180.53125 386.918125 
L 180.53125 22.318125 
" clip-path="url(#p7445cdaac4)" style="fill: none; stroke: #b0b0b0; stroke-opacity: 0.3; stroke-width: 0.8; stroke-linecap: square"/>
     </g>
     <g id="line2d_4">
      <g>
       <use xlink:href="#m1415accf42" x="180.53125" y="386.918125" style="stroke: #000000; stroke-width: 0.8"/>
      </g>
     </g>
     <g id="text_2">
      <!-- 2007.5 -->
      <g transform="translate(163.035938 401.516562) scale(0.1 -0.1)">
       <defs>
        <path id="DejaVuSans-37" d="M 525 4666 
L 3525 4666 
L 3525 4397 
L 1831 0 
L 1172 0 
L 2766 4134 
L 525 4134 
L 525 4666 
z
" transform="scale(0.015625)"/>
       </defs>
       <use xlink:href="#DejaVuSans-32"/>
       <use xlink:href="#DejaVuSans-30" transform="translate(63.623047 0)"/>
       <use xlink:href="#DejaVuSans-30" transform="translate(127.246094 0)"/>
       <use xlink:href="#DejaVuSans-37" transform="translate(190.869141 0)"/>
       <use xlink:href="#DejaVuSans-2e" transform="translate(254.492188 0)"/>
       <use xlink:href="#DejaVuSans-35" transform="translate(286.279297 0)"/>
      </g>
     </g>
    </g>
    <g id="xtick_3">
     <g id="line2d_5">
      <path d="M 252.96875 386.918125 
L 252.96875 22.318125 
" clip-path="url(#p7445cdaac4)" style="fill: none; stroke: #b0b0b0; stroke-opacity: 0.3; stroke-width: 0.8; stroke-linecap: square"/>
     </g>
     <g id="line2d_6">
      <g>
       <use xlink:href="#m1415accf42" x="252.96875" y="386.918125" style="stroke: #000000; stroke-width: 0.8"/>
      </g>
     </g>
     <g id="text_3">
      <!-- 2010.0 -->
      <g transform="translate(235.473438 401.516562) scale(0.1 -0.1)">
       <defs>
        <path id="DejaVuSans-31" d="M 794 531 
L 1825 531 
L 1825 4091 
L 703 3866 
L 703 4441 
L 1819 4666 
L 2450 4666 
L 2450 531 
L 3481 531 
L 3481 0 
L 794 0 
L 794 531 
z
" transform="scale(0.015625)"/>
       </defs>
       <use xlink:href="#DejaVuSans-32"/>
       <use xlink:href="#DejaVuSans-30" transform="translate(63.623047 0)"/>
       <use xlink:href="#DejaVuSans-31" transform="translate(127.246094 0)"/>
       <use xlink:href="#DejaVuSans-30" transform="translate(190.869141 0)"/>
       <use xlink:href="#DejaVuSans-2e" transform="translate(254.492188 0)"/>
       <use xlink:href="#DejaVuSans-30" transform="translate(286.279297 0)"/>
      </g>
     </g>
    </g>
    <g id="xtick_4">
     <g id="line2d_7">
      <path d="M 325.40625 386.918125 
L 325.40625 22.318125 
" clip-path="url(#p7445cdaac4)" style="fill: none; stroke: #b0b0b0; stroke-opacity: 0.3; stroke-width: 0.8; stroke-linecap: square"/>
     </g>
     <g id="line2d_8">
      <g>
       <use xlink:href="#m1415accf42" x="325.40625" y="386.918125" style="stroke: #000000; stroke-width: 0.8"/>
      </g>
     </g>
     <g id="text_4">
      <!-- 2012.5 -->
      <g transform="translate(307.910938 401.516562) scale(0.1 -0.1)">
       <use xlink:href="#DejaVuSans-32"/>
       <use xlink:href="#DejaVuSans-30" transform="translate(63.623047 0)"/>
       <use xlink:href="#DejaVuSans-31" transform="translate(127.246094 0)"/>
       <use xlink:href="#DejaVuSans-32" transform="translate(190.869141 0)"/>
       <use xlink:href="#DejaVuSans-2e" transform="translate(254.492188 0)"/>
       <use xlink:href="#DejaVuSans-35" transform="translate(286.279297 0)"/>
      </g>
     </g>
    </g>
    <g id="xtick_5">
     <g id="line2d_9">
      <path d="M 397.84375 386.918125 
L 397.84375 22.318125 
" clip-path="url(#p7445cdaac4)" style="fill: none; stroke: #b0b0b0; stroke-opacity: 0.3; stroke-width: 0.8; stroke-linecap: square"/>
     </g>
     <g id="line2d_10">
      <g>
       <use xlink:href="#m1415accf42" x="397.84375" y="386.918125" style="stroke: #000000; stroke-width: 0.8"/>
      </g>
     </g>
     <g id="text_5">
      <!-- 2015.0 -->
      <g transform="translate(380.348438 401.516562) scale(0.1 -0.1)">
       <use xlink:href="#DejaVuSans-32"/>
       <use xlink:href="#DejaVuSans-30" transform="translate(63.623047 0)"/>
       <use xlink:href="#DejaVuSans-31" transform="translate(127.246094 0)"/>
       <use xlink:href="#DejaVuSans-35" transform="translate(190.869141 0)"/>
       <use xlink:href="#DejaVuSans-2e" transform="translate(254.492188 0)"/>
       <use xlink:href="#DejaVuSans-30" transform="translate(286.279297 0)"/>
      </g>
     </g>
    </g>
    <g id="xtick_6">
     <g id="line2d_11">
      <path d="M 470.28125 386.918125 
L 470.28125 22.318125 
" clip-path="url(#p7445cdaac4)" style="fill: none; stroke: #b0b0b0; stroke-opacity: 0.3; stroke-width: 0.8; stroke-linecap: square"/>
     </g>
     <g id="line2d_12">
      <g>
       <use xlink:href="#m1415accf42" x="470.28125" y="386.918125" style="stroke: #000000; stroke-width: 0.8"/>
      </g>
     </g>
     <g id="text_6">
      <!-- 2017.5 -->
      <g transform="translate(452.785938 401.516562) scale(0.1 -0.1)">
       <use xlink:href="#DejaVuSans-32"/>
       <use xlink:href="#DejaVuSans-30" transform="translate(63.623047 0)"/>
       <use xlink:href="#DejaVuSans-31" transform="translate(127.246094 0)"/>
       <use xlink:href="#DejaVuSans-37" transform="translate(190.869141 0)"/>
       <use xlink:href="#DejaVuSans-2e" transform="translate(254.492188 0)"/>
       <use xlink:href="#DejaVuSans-35" transform="translate(286.279297 0)"/>
      </g>
     </g>
    </g>
    <g id="xtick_7">
     <g id="line2d_13">
      <path d="M 542.71875 386.918125 
L 542.71875 22.318125 
" clip-path="url(#p7445cdaac4)" style="fill: none; stroke: #b0b0b0; stroke-opacity: 0.3; stroke-width: 0.8; stroke-linecap: square"/>
     </g>
     <g id="line2d_14">
      <g>
       <use xlink:href="#m1415accf42" x="542.71875" y="386.918125" style="stroke: #000000; stroke-width: 0.8"/>
      </g>
     </g>
     <g id="text_7">
      <!-- 2020.0 -->
      <g transform="translate(525.223438 401.516562) scale(0.1 -0.1)">
       <use xlink:href="#DejaVuSans-32"/>
       <use xlink:href="#DejaVuSans-30" transform="translate(63.623047 0)"/>
       <use xlink:href="#DejaVuSans-32" transform="translate(127.246094 0)"/>
       <use xlink:href="#DejaVuSans-30" transform="translate(190.869141 0)"/>
       <use xlink:href="#DejaVuSans-2e" transform="translate(254.492188 0)"/>
       <use xlink:href="#DejaVuSans-30" transform="translate(286.279297 0)"/>
      </g>
     </g>
    </g>
    <g id="xtick_8">
     <g id="line2d_15">
      <path d="M 615.15625 386.918125 
L 615.15625 22.318125 
" clip-path="url(#p7445cdaac4)" style="fill: none; stroke: #b0b0b0; stroke-opacity: 0.3; stroke-width: 0.8; stroke-linecap: square"/>
     </g>
     <g id="line2d_16">
      <g>
       <use xlink:href="#m1415accf42" x="615.15625" y="386.918125" style="stroke: #000000; stroke-width: 0.8"/>
      </g>
     </g>
     <g id="text_8">
      <!-- 2022.5 -->
      <g transform="translate(597.660938 401.516562) scale(0.1 -0.1)">
       <use xlink:href="#DejaVuSans-32"/>
       <use xlink:href="#DejaVuSans-30" transform="translate(63.623047 0)"/>
       <use xlink:href="#DejaVuSans-32" transform="translate(127.246094 0)"/>
       <use xlink:href="#DejaVuSans-32" transform="translate(190.869141 0)"/>
       <use xlink:href="#DejaVuSans-2e" transform="translate(254.492188 0)"/>
       <use xlink:href="#DejaVuSans-35" transform="translate(286.279297 0)"/>
      </g>
     </g>
    </g>
    <g id="xtick_9">
     <g id="line2d_17">
      <path d="M 687.59375 386.918125 
L 687.59375 22.318125 
" clip-path="url(#p7445cdaac4)" style="fill: none; stroke: #b0b0b0; stroke-opacity: 0.3; stroke-width: 0.8; stroke-linecap: square"/>
     </g>
     <g id="line2d_18">
      <g>
       <use xlink:href="#m1415accf42" x="687.59375" y="386.918125" style="stroke: #000000; stroke-width: 0.8"/>
      </g>
     </g>
     <g id="text_9">
      <!-- 2025.0 -->
      <g transform="translate(670.098438 401.516562) scale(0.1 -0.1)">
       <use xlink:href="#DejaVuSans-32"/>
       <use xlink:href="#DejaVuSans-30" transform="translate(63.623047 0)"/>
       <use xlink:href="#DejaVuSans-32" transform="translate(127.246094 0)"/>
       <use xlink:href="#DejaVuSans-35" transform="translate(190.869141 0)"/>
       <use xlink:href="#DejaVuSans-2e" transform="translate(254.492188 0)"/>
       <use xlink:href="#DejaVuSans-30" transform="translate(286.279297 0)"/>
      </g>
     </g>
    </g>
    <g id="text_10">
     <!-- Year -->
     <g transform="translate(358.28125 415.194687) scale(0.1 -0.1)">
      <defs>
       <path id="DejaVuSans-59" d="M -13 4666 
L 666 4666 
L 1959 2747 
L 3244 4666 
L 3922 4666 
L 2272 2222 
L 2272 0 
L 1638 0 
L 1638 2222 
L -13 4666 
z
" transform="scale(0.015625)"/>
       <path id="DejaVuSans-65" d="M 3597 1894 
L 3597 1613 
L 953 1613 
Q 991 1019 1311 708 
Q 1631 397 2203 397 
Q 2534 397 2845 478 
Q 3156 559 3463 722 
L 3463 178 
Q 3153 47 2828 -22 
Q 2503 -91 2169 -91 
Q 1331 -91 842 396 
Q 353 884 353 1716 
Q 353 2575 817 3079 
Q 1281 3584 2069 3584 
Q 2775 3584 3186 3129 
Q 3597 2675 3597 1894 
z
M 3022 2063 
Q 3016 2534 2758 2815 
Q 2500 3097 2075 3097 
Q 1594 3097 1305 2825 
Q 1016 2553 972 2059 
L 3022 2063 
z
" transform="scale(0.015625)"/>
       <path id="DejaVuSans-61" d="M 2194 1759 
Q 1497 1759 1228 1600 
Q 959 1441 959 1056 
Q 959 750 1161 570 
Q 1363 391 1709 391 
Q 2188 391 2477 730 
Q 2766 1069 2766 1631 
L 2766 1759 
L 2194 1759 
z
M 3341 1997 
L 3341 0 
L 2766 0 
L 2766 531 
Q 2569 213 2275 61 
Q 1981 -91 1556 -91 
Q 1019 -91 701 211 
Q 384 513 384 1019 
Q 384 1609 779 1909 
Q 1175 2209 1959 2209 
L 2766 2209 
L 2766 2266 
Q 2766 2663 2505 2880 
Q 2244 3097 1772 3097 
Q 1472 3097 1187 3025 
Q 903 2953 641 2809 
L 641 3341 
Q 956 3463 1253 3523 
Q 1550 3584 1831 3584 
Q 2591 3584 2966 3190 
Q 3341 2797 3341 1997 
z
" transform="scale(0.015625)"/>
       <path id="DejaVuSans-72" d="M 2631 2963 
Q 2534 3019 2420 3045 
Q 2306 3072 2169 3072 
Q 1681 3072 1420 2755 
Q 1159 2438 1159 1844 
L 1159 0 
L 581 0 
L 581 3500 
L 1159 3500 
L 1159 2956 
Q 1341 3275 1631 3429 
Q 1922 3584 2338 3584 
Q 2397 3584 2469 3576 
Q 2541 3569 2628 3553 
L 2631 2963 
z
" transform="scale(0.015625)"/>
      </defs>
      <use xlink:href="#DejaVuSans-59"/>
      <use xlink:href="#DejaVuSans-65" transform="translate(47.833984 0)"/>
      <use xlink:href="#DejaVuSans-61" transform="translate(109.357422 0)"/>
      <use xlink:href="#DejaVuSans-72" transform="translate(170.636719 0)"/>
     </g>
    </g>
   </g>
   <g id="matplotlib.axis_2">
    <g id="ytick_1">
     <g id="line2d_19">
      <path d="M 50.14375 350.043032 
L 687.59375 350.043032 
" clip-path="url(#p7445cdaac4)" style="fill: none; stroke: #b0b0b0; stroke-opacity: 0.3; stroke-width: 0.8; stroke-linecap: square"/>
     </g>
     <g id="line2d_20">
      <defs>
       <path id="m4204347a8f" d="M 0 0 
L -3.5 0 
" style="stroke: #000000; stroke-width: 0.8"/>
      </defs>
      <g>
       <use xlink:href="#m4204347a8f" x="50.14375" y="350.043032" style="stroke: #000000; stroke-width: 0.8"/>
      </g>
     </g>
     <g id="text_11">
      <!-- 0.05 -->
      <g transform="translate(20.878125 353.84225) scale(0.1 -0.1)">
       <use xlink:href="#DejaVuSans-30"/>
       <use xlink:href="#DejaVuSans-2e" transform="translate(63.623047 0)"/>
       <use xlink:href="#DejaVuSans-30" transform="translate(95.410156 0)"/>
       <use xlink:href="#DejaVuSans-35" transform="translate(159.033203 0)"/>
      </g>
     </g>
    </g>
    <g id="ytick_2">
     <g id="line2d_21">
      <path d="M 50.14375 307.31194 
L 687.59375 307.31194 
" clip-path="url(#p7445cdaac4)" style="fill: none; stroke: #b0b0b0; stroke-opacity: 0.3; stroke-width: 0.8; stroke-linecap: square"/>
     </g>
     <g id="line2d_22">
      <g>
       <use xlink:href="#m4204347a8f" x="50.14375" y="307.31194" style="stroke: #000000; stroke-width: 0.8"/>
      </g>
     </g>
     <g id="text_12">
      <!-- 0.10 -->
      <g transform="translate(20.878125 311.111159) scale(0.1 -0.1)">
       <use xlink:href="#DejaVuSans-30"/>
       <use xlink:href="#DejaVuSans-2e" transform="translate(63.623047 0)"/>
       <use xlink:href="#DejaVuSans-31" transform="translate(95.410156 0)"/>
       <use xlink:href="#DejaVuSans-30" transform="translate(159.033203 0)"/>
      </g>
     </g>
    </g>
    <g id="ytick_3">
     <g id="line2d_23">
      <path d="M 50.14375 264.580848 
L 687.59375 264.580848 
" clip-path="url(#p7445cdaac4)" style="fill: none; stroke: #b0b0b0; stroke-opacity: 0.3; stroke-width: 0.8; stroke-linecap: square"/>
     </g>
     <g id="line2d_24">
      <g>
       <use xlink:href="#m4204347a8f" x="50.14375" y="264.580848" style="stroke: #000000; stroke-width: 0.8"/>
      </g>
     </g>
     <g id="text_13">
      <!-- 0.15 -->
      <g transform="translate(20.878125 268.380067) scale(0.1 -0.1)">
       <use xlink:href="#DejaVuSans-30"/>
       <use xlink:href="#DejaVuSans-2e" transform="translate(63.623047 0)"/>
       <use xlink:href="#DejaVuSans-31" transform="translate(95.410156 0)"/>
       <use xlink:href="#DejaVuSans-35" transform="translate(159.033203 0)"/>
      </g>
     </g>
    </g>
    <g id="ytick_4">
     <g id="line2d_25">
      <path d="M 50.14375 221.849757 
L 687.59375 221.849757 
" clip-path="url(#p7445cdaac4)" style="fill: none; stroke: #b0b0b0; stroke-opacity: 0.3; stroke-width: 0.8; stroke-linecap: square"/>
     </g>
     <g id="line2d_26">
      <g>
       <use xlink:href="#m4204347a8f" x="50.14375" y="221.849757" style="stroke: #000000; stroke-width: 0.8"/>
      </g>
     </g>
     <g id="text_14">
      <!-- 0.20 -->
      <g transform="translate(20.878125 225.648975) scale(0.1 -0.1)">
       <use xlink:href="#DejaVuSans-30"/>
       <use xlink:href="#DejaVuSans-2e" transform="translate(63.623047 0)"/>
       <use xlink:href="#DejaVuSans-32" transform="translate(95.410156 0)"/>
       <use xlink:href="#DejaVuSans-30" transform="translate(159.033203 0)"/>
      </g>
     </g>
    </g>
    <g id="ytick_5">
     <g id="line2d_27">
      <path d="M 50.14375 179.118665 
L 687.59375 179.118665 
" clip-path="url(#p7445cdaac4)" style="fill: none; stroke: #b0b0b0; stroke-opacity: 0.3; stroke-width: 0.8; stroke-linecap: square"/>
     </g>
     <g id="line2d_28">
      <g>
       <use xlink:href="#m4204347a8f" x="50.14375" y="179.118665" style="stroke: #000000; stroke-width: 0.8"/>
      </g>
     </g>
     <g id="text_15">
      <!-- 0.25 -->
      <g transform="translate(20.878125 182.917884) scale(0.1 -0.1)">
       <use xlink:href="#DejaVuSans-30"/>
       <use xlink:href="#DejaVuSans-2e" transform="translate(63.623047 0)"/>
       <use xlink:href="#DejaVuSans-32" transform="translate(95.410156 0)"/>
       <use xlink:href="#DejaVuSans-35" transform="translate(159.033203 0)"/>
      </g>
     </g>
    </g>
    <g id="ytick_6">
     <g id="line2d_29">
      <path d="M 50.14375 136.387573 
L 687.59375 136.387573 
" clip-path="url(#p7445cdaac4)" style="fill: none; stroke: #b0b0b0; stroke-opacity: 0.3; stroke-width: 0.8; stroke-linecap: square"/>
     </g>
     <g id="line2d_30">
      <g>
       <use xlink:href="#m4204347a8f" x="50.14375" y="136.387573" style="stroke: #000000; stroke-width: 0.8"/>
      </g>
     </g>
     <g id="text_16">
      <!-- 0.30 -->
      <g transform="translate(20.878125 140.186792) scale(0.1 -0.1)">
       <defs>
        <path id="DejaVuSans-33" d="M 2597 2516 
Q 3050 2419 3304 2112 
Q 3559 1806 3559 1356 
Q 3559 666 3084 287 
Q 2609 -91 1734 -91 
Q 1441 -91 1130 -33 
Q 819 25 488 141 
L 488 750 
Q 750 597 1062 519 
Q 1375 441 1716 441 
Q 2309 441 2620 675 
Q 2931 909 2931 1356 
Q 2931 1769 2642 2001 
Q 2353 2234 1838 2234 
L 1294 2234 
L 1294 2753 
L 1863 2753 
Q 2328 2753 2575 2939 
Q 2822 3125 2822 3475 
Q 2822 3834 2567 4026 
Q 2313 4219 1838 4219 
Q 1578 4219 1281 4162 
Q 984 4106 628 3988 
L 628 4550 
Q 988 4650 1302 4700 
Q 1616 4750 1894 4750 
Q 2613 4750 3031 4423 
Q 3450 4097 3450 3541 
Q 3450 3153 3228 2886 
Q 3006 2619 2597 2516 
z
" transform="scale(0.015625)"/>
       </defs>
       <use xlink:href="#DejaVuSans-30"/>
       <use xlink:href="#DejaVuSans-2e" transform="translate(63.623047 0)"/>
       <use xlink:href="#DejaVuSans-33" transform="translate(95.410156 0)"/>
       <use xlink:href="#DejaVuSans-30" transform="translate(159.033203 0)"/>
      </g>
     </g>
    </g>
    <g id="ytick_7">
     <g id="line2d_31">
      <path d="M 50.14375 93.656482 
L 687.59375 93.656482 
" clip-path="url(#p7445cdaac4)" style="fill: none; stroke: #b0b0b0; stroke-opacity: 0.3; stroke-width: 0.8; stroke-linecap: square"/>
     </g>
     <g id="line2d_32">
      <g>
       <use xlink:href="#m4204347a8f" x="50.14375" y="93.656482" style="stroke: #000000; stroke-width: 0.8"/>
      </g>
     </g>
     <g id="text_17">
      <!-- 0.35 -->
      <g transform="translate(20.878125 97.4557) scale(0.1 -0.1)">
       <use xlink:href="#DejaVuSans-30"/>
       <use xlink:href="#DejaVuSans-2e" transform="translate(63.623047 0)"/>
       <use xlink:href="#DejaVuSans-33" transform="translate(95.410156 0)"/>
       <use xlink:href="#DejaVuSans-35" transform="translate(159.033203 0)"/>
      </g>
     </g>
    </g>
    <g id="ytick_8">
     <g id="line2d_33">
      <path d="M 50.14375 50.92539 
L 687.59375 50.92539 
" clip-path="url(#p7445cdaac4)" style="fill: none; stroke: #b0b0b0; stroke-opacity: 0.3; stroke-width: 0.8; stroke-linecap: square"/>
     </g>
     <g id="line2d_34">
      <g>
       <use xlink:href="#m4204347a8f" x="50.14375" y="50.92539" style="stroke: #000000; stroke-width: 0.8"/>
      </g>
     </g>
     <g id="text_18">
      <!-- 0.40 -->
      <g transform="translate(20.878125 54.724609) scale(0.1 -0.1)">
       <defs>
        <path id="DejaVuSans-34" d="M 2419 4116 
L 825 1625 
L 2419 1625 
L 2419 4116 
z
M 2253 4666 
L 3047 4666 
L 3047 1625 
L 3713 1625 
L 3713 1100 
L 3047 1100 
L 3047 0 
L 2419 0 
L 2419 1100 
L 313 1100 
L 313 1709 
L 2253 4666 
z
" transform="scale(0.015625)"/>
       </defs>
       <use xlink:href="#DejaVuSans-30"/>
       <use xlink:href="#DejaVuSans-2e" transform="translate(63.623047 0)"/>
       <use xlink:href="#DejaVuSans-34" transform="translate(95.410156 0)"/>
       <use xlink:href="#DejaVuSans-30" transform="translate(159.033203 0)"/>
      </g>
     </g>
    </g>
    <g id="text_19">
     <!-- Mean arable share -->
     <g transform="translate(14.798438 251.100156) rotate(-90) scale(0.1 -0.1)">
      <defs>
       <path id="DejaVuSans-4d" d="M 628 4666 
L 1569 4666 
L 2759 1491 
L 3956 4666 
L 4897 4666 
L 4897 0 
L 4281 0 
L 4281 4097 
L 3078 897 
L 2444 897 
L 1241 4097 
L 1241 0 
L 628 0 
L 628 4666 
z
" transform="scale(0.015625)"/>
       <path id="DejaVuSans-6e" d="M 3513 2113 
L 3513 0 
L 2938 0 
L 2938 2094 
Q 2938 2591 2744 2837 
Q 2550 3084 2163 3084 
Q 1697 3084 1428 2787 
Q 1159 2491 1159 1978 
L 1159 0 
L 581 0 
L 581 3500 
L 1159 3500 
L 1159 2956 
Q 1366 3272 1645 3428 
Q 1925 3584 2291 3584 
Q 2894 3584 3203 3211 
Q 3513 2838 3513 2113 
z
" transform="scale(0.015625)"/>
       <path id="DejaVuSans-20" transform="scale(0.015625)"/>
       <path id="DejaVuSans-62" d="M 3116 1747 
Q 3116 2381 2855 2742 
Q 2594 3103 2138 3103 
Q 1681 3103 1420 2742 
Q 1159 2381 1159 1747 
Q 1159 1113 1420 752 
Q 1681 391 2138 391 
Q 2594 391 2855 752 
Q 3116 1113 3116 1747 
z
M 1159 2969 
Q 1341 3281 1617 3432 
Q 1894 3584 2278 3584 
Q 2916 3584 3314 3078 
Q 3713 2572 3713 1747 
Q 3713 922 3314 415 
Q 2916 -91 2278 -91 
Q 1894 -91 1617 61 
Q 1341 213 1159 525 
L 1159 0 
L 581 0 
L 581 4863 
L 1159 4863 
L 1159 2969 
z
" transform="scale(0.015625)"/>
       <path id="DejaVuSans-6c" d="M 603 4863 
L 1178 4863 
L 1178 0 
L 603 0 
L 603 4863 
z
" transform="scale(0.015625)"/>
       <path id="DejaVuSans-73" d="M 2834 3397 
L 2834 2853 
Q 2591 2978 2328 3040 
Q 2066 3103 1784 3103 
Q 1356 3103 1142 2972 
Q 928 2841 928 2578 
Q 928 2378 1081 2264 
Q 1234 2150 1697 2047 
L 1894 2003 
Q 2506 1872 2764 1633 
Q 3022 1394 3022 966 
Q 3022 478 2636 193 
Q 2250 -91 1575 -91 
Q 1294 -91 989 -36 
Q 684 19 347 128 
L 347 722 
Q 666 556 975 473 
Q 1284 391 1588 391 
Q 1994 391 2212 530 
Q 2431 669 2431 922 
Q 2431 1156 2273 1281 
Q 2116 1406 1581 1522 
L 1381 1569 
Q 847 1681 609 1914 
Q 372 2147 372 2553 
Q 372 3047 722 3315 
Q 1072 3584 1716 3584 
Q 2034 3584 2315 3537 
Q 2597 3491 2834 3397 
z
" transform="scale(0.015625)"/>
       <path id="DejaVuSans-68" d="M 3513 2113 
L 3513 0 
L 2938 0 
L 2938 2094 
Q 2938 2591 2744 2837 
Q 2550 3084 2163 3084 
Q 1697 3084 1428 2787 
Q 1159 2491 1159 1978 
L 1159 0 
L 581 0 
L 581 4863 
L 1159 4863 
L 1159 2956 
Q 1366 3272 1645 3428 
Q 1925 3584 2291 3584 
Q 2894 3584 3203 3211 
Q 3513 2838 3513 2113 
z
" transform="scale(0.015625)"/>
      </defs>
      <use xlink:href="#DejaVuSans-4d"/>
      <use xlink:href="#DejaVuSans-65" transform="translate(86.279297 0)"/>
      <use xlink:href="#DejaVuSans-61" transform="translate(147.802734 0)"/>
      <use xlink:href="#DejaVuSans-6e" transform="translate(209.082031 0)"/>
      <use xlink:href="#DejaVuSans-20" transform="translate(272.460938 0)"/>
      <use xlink:href="#DejaVuSans-61" transform="translate(304.248047 0)"/>
      <use xlink:href="#DejaVuSans-72" transform="translate(365.527344 0)"/>
      <use xlink:href="#DejaVuSans-61" transform="translate(406.640625 0)"/>
      <use xlink:href="#DejaVuSans-62" transform="translate(467.919922 0)"/>
      <use xlink:href="#DejaVuSans-6c" transform="translate(531.396484 0)"/>
      <use xlink:href="#DejaVuSans-65" transform="translate(559.179688 0)"/>
      <use xlink:href="#DejaVuSans-20" transform="translate(620.703125 0)"/>
      <use xlink:href="#DejaVuSans-73" transform="translate(652.490234 0)"/>
      <use xlink:href="#DejaVuSans-68" transform="translate(704.589844 0)"/>
      <use xlink:href="#DejaVuSans-61" transform="translate(767.96875 0)"/>
      <use xlink:href="#DejaVuSans-72" transform="translate(829.248047 0)"/>
      <use xlink:href="#DejaVuSans-65" transform="translate(868.111328 0)"/>
     </g>
    </g>
   </g>
   <g id="line2d_35">
    <path d="M 79.11875 190.562189 
L 108.09375 192.546772 
L 137.06875 191.98108 
L 166.04375 184.189516 
L 195.01875 185.359544 
L 223.99375 192.359163 
L 252.96875 192.349745 
L 281.94375 184.532936 
L 310.91875 193.982931 
L 339.89375 192.95302 
L 368.86875 194.172979 
L 397.84375 186.73883 
L 426.81875 194.174808 
L 455.79375 193.133042 
L 484.76875 192.540604 
L 513.74375 194.012973 
L 542.71875 185.81121 
L 571.69375 192.294701 
L 600.66875 192.188844 
L 629.64375 194.253473 
L 658.61875 193.397112 
" clip-path="url(#p7445cdaac4)" style="fill: none; stroke: #1f77b4; stroke-width: 2; stroke-linecap: square"/>
    <defs>
     <path id="md874ea08d4" d="M 0 3 
C 0.795609 3 1.55874 2.683901 2.12132 2.12132 
C 2.683901 1.55874 3 0.795609 3 0 
C 3 -0.795609 2.683901 -1.55874 2.12132 -2.12132 
C 1.55874 -2.683901 0.795609 -3 0 -3 
C -0.795609 -3 -1.55874 -2.683901 -2.12132 -2.12132 
C -2.683901 -1.55874 -3 -0.795609 -3 0 
C -3 0.795609 -2.683901 1.55874 -2.12132 2.12132 
C -1.55874 2.683901 -0.795609 3 0 3 
z
" style="stroke: #1f77b4"/>
    </defs>
    <g clip-path="url(#p7445cdaac4)">
     <use xlink:href="#md874ea08d4" x="79.11875" y="190.562189" style="fill: #1f77b4; stroke: #1f77b4"/>
     <use xlink:href="#md874ea08d4" x="108.09375" y="192.546772" style="fill: #1f77b4; stroke: #1f77b4"/>
     <use xlink:href="#md874ea08d4" x="137.06875" y="191.98108" style="fill: #1f77b4; stroke: #1f77b4"/>
     <use xlink:href="#md874ea08d4" x="166.04375" y="184.189516" style="fill: #1f77b4; stroke: #1f77b4"/>
     <use xlink:href="#md874ea08d4" x="195.01875" y="185.359544" style="fill: #1f77b4; stroke: #1f77b4"/>
     <use xlink:href="#md874ea08d4" x="223.99375" y="192.359163" style="fill: #1f77b4; stroke: #1f77b4"/>
     <use xlink:href="#md874ea08d4" x="252.96875" y="192.349745" style="fill: #1f77b4; stroke: #1f77b4"/>
     <use xlink:href="#md874ea08d4" x="281.94375" y="184.532936" style="fill: #1f77b4; stroke: #1f77b4"/>
     <use xlink:href="#md874ea08d4" x="310.91875" y="193.982931" style="fill: #1f77b4; stroke: #1f77b4"/>
     <use xlink:href="#md874ea08d4" x="339.89375" y="192.95302" style="fill: #1f77b4; stroke: #1f77b4"/>
     <use xlink:href="#md874ea08d4" x="368.86875" y="194.172979" style="fill: #1f77b4; stroke: #1f77b4"/>
     <use xlink:href="#md874ea08d4" x="397.84375" y="186.73883" style="fill: #1f77b4; stroke: #1f77b4"/>
     <use xlink:href="#md874ea08d4" x="426.81875" y="194.174808" style="fill: #1f77b4; stroke: #1f77b4"/>
     <use xlink:href="#md874ea08d4" x="455.79375" y="193.133042" style="fill: #1f77b4; stroke: #1f77b4"/>
     <use xlink:href="#md874ea08d4" x="484.76875" y="192.540604" style="fill: #1f77b4; stroke: #1f77b4"/>
     <use xlink:href="#md874ea08d4" x="513.74375" y="194.012973" style="fill: #1f77b4; stroke: #1f77b4"/>
     <use xlink:href="#md874ea08d4" x="542.71875" y="185.81121" style="fill: #1f77b4; stroke: #1f77b4"/>
     <use xlink:href="#md874ea08d4" x="571.69375" y="192.294701" style="fill: #1f77b4; stroke: #1f77b4"/>
     <use xlink:href="#md874ea08d4" x="600.66875" y="192.188844" style="fill: #1f77b4; stroke: #1f77b4"/>
     <use xlink:href="#md874ea08d4" x="629.64375" y="194.253473" style="fill: #1f77b4; stroke: #1f77b4"/>
     <use xlink:href="#md874ea08d4" x="658.61875" y="193.397112" style="fill: #1f77b4; stroke: #1f77b4"/>
    </g>
   </g>
   <g id="line2d_36">
    <path d="M 79.11875 366.075875 
L 108.09375 365.801396 
L 137.06875 365.469096 
L 166.04375 366.036018 
L 195.01875 366.451786 
L 223.99375 365.78221 
L 252.96875 365.505368 
L 281.94375 365.286287 
L 310.91875 365.456012 
L 339.89375 366.402085 
L 368.86875 365.483354 
L 397.84375 365.027417 
L 426.81875 364.652491 
L 455.79375 366.427473 
L 484.76875 365.264216 
L 513.74375 366.535153 
L 542.71875 364.915567 
L 571.69375 365.490169 
L 600.66875 365.204439 
L 629.64375 365.496763 
L 658.61875 366.451145 
" clip-path="url(#p7445cdaac4)" style="fill: none; stroke: #ff7f0e; stroke-width: 2; stroke-linecap: square"/>
    <defs>
     <path id="m2d6bc4a08f" d="M 0 3 
C 0.795609 3 1.55874 2.683901 2.12132 2.12132 
C 2.683901 1.55874 3 0.795609 3 0 
C 3 -0.795609 2.683901 -1.55874 2.12132 -2.12132 
C 1.55874 -2.683901 0.795609 -3 0 -3 
C -0.795609 -3 -1.55874 -2.683901 -2.12132 -2.12132 
C -2.683901 -1.55874 -3 -0.795609 -3 0 
C -3 0.795609 -2.683901 1.55874 -2.12132 2.12132 
C -1.55874 2.683901 -0.795609 3 0 3 
z
" style="stroke: #ff7f0e"/>
    </defs>
    <g clip-path="url(#p7445cdaac4)">
     <use xlink:href="#m2d6bc4a08f" x="79.11875" y="366.075875" style="fill: #ff7f0e; stroke: #ff7f0e"/>
     <use xlink:href="#m2d6bc4a08f" x="108.09375" y="365.801396" style="fill: #ff7f0e; stroke: #ff7f0e"/>
     <use xlink:href="#m2d6bc4a08f" x="137.06875" y="365.469096" style="fill: #ff7f0e; stroke: #ff7f0e"/>
     <use xlink:href="#m2d6bc4a08f" x="166.04375" y="366.036018" style="fill: #ff7f0e; stroke: #ff7f0e"/>
     <use xlink:href="#m2d6bc4a08f" x="195.01875" y="366.451786" style="fill: #ff7f0e; stroke: #ff7f0e"/>
     <use xlink:href="#m2d6bc4a08f" x="223.99375" y="365.78221" style="fill: #ff7f0e; stroke: #ff7f0e"/>
     <use xlink:href="#m2d6bc4a08f" x="252.96875" y="365.505368" style="fill: #ff7f0e; stroke: #ff7f0e"/>
     <use xlink:href="#m2d6bc4a08f" x="281.94375" y="365.286287" style="fill: #ff7f0e; stroke: #ff7f0e"/>
     <use xlink:href="#m2d6bc4a08f" x="310.91875" y="365.456012" style="fill: #ff7f0e; stroke: #ff7f0e"/>
     <use xlink:href="#m2d6bc4a08f" x="339.89375" y="366.402085" style="fill: #ff7f0e; stroke: #ff7f0e"/>
     <use xlink:href="#m2d6bc4a08f" x="368.86875" y="365.483354" style="fill: #ff7f0e; stroke: #ff7f0e"/>
     <use xlink:href="#m2d6bc4a08f" x="397.84375" y="365.027417" style="fill: #ff7f0e; stroke: #ff7f0e"/>
     <use xlink:href="#m2d6bc4a08f" x="426.81875" y="364.652491" style="fill: #ff7f0e; stroke: #ff7f0e"/>
     <use xlink:href="#m2d6bc4a08f" x="455.79375" y="366.427473" style="fill: #ff7f0e; stroke: #ff7f0e"/>
     <use xlink:href="#m2d6bc4a08f" x="484.76875" y="365.264216" style="fill: #ff7f0e; stroke: #ff7f0e"/>
     <use xlink:href="#m2d6bc4a08f" x="513.74375" y="366.535153" style="fill: #ff7f0e; stroke: #ff7f0e"/>
     <use xlink:href="#m2d6bc4a08f" x="542.71875" y="364.915567" style="fill: #ff7f0e; stroke: #ff7f0e"/>
     <use xlink:href="#m2d6bc4a08f" x="571.69375" y="365.490169" style="fill: #ff7f0e; stroke: #ff7f0e"/>
     <use xlink:href="#m2d6bc4a08f" x="600.66875" y="365.204439" style="fill: #ff7f0e; stroke: #ff7f0e"/>
     <use xlink:href="#m2d6bc4a08f" x="629.64375" y="365.496763" style="fill: #ff7f0e; stroke: #ff7f0e"/>
     <use xlink:href="#m2d6bc4a08f" x="658.61875" y="366.451145" style="fill: #ff7f0e; stroke: #ff7f0e"/>
    </g>
   </g>
   <g id="line2d_37">
    <path d="M 79.11875 318.852729 
L 108.09375 322.478031 
L 137.06875 320.850601 
L 166.04375 318.016962 
L 195.01875 319.902403 
L 223.99375 322.421628 
L 252.96875 318.781143 
L 281.94375 318.136608 
L 310.91875 316.385316 
L 339.89375 322.620307 
L 368.86875 321.632839 
L 397.84375 320.431033 
L 426.81875 316.449528 
L 455.79375 322.692789 
L 484.76875 321.055311 
L 513.74375 321.572991 
L 542.71875 320.082195 
L 571.69375 318.74238 
L 600.66875 320.924112 
L 629.64375 321.654128 
L 658.61875 321.344656 
" clip-path="url(#p7445cdaac4)" style="fill: none; stroke: #2ca02c; stroke-width: 2; stroke-linecap: square"/>
    <defs>
     <path id="md57c797a40" d="M 0 3 
C 0.795609 3 1.55874 2.683901 2.12132 2.12132 
C 2.683901 1.55874 3 0.795609 3 0 
C 3 -0.795609 2.683901 -1.55874 2.12132 -2.12132 
C 1.55874 -2.683901 0.795609 -3 0 -3 
C -0.795609 -3 -1.55874 -2.683901 -2.12132 -2.12132 
C -2.683901 -1.55874 -3 -0.795609 -3 0 
C -3 0.795609 -2.683901 1.55874 -2.12132 2.12132 
C -1.55874 2.683901 -0.795609 3 0 3 
z
" style="stroke: #2ca02c"/>
    </defs>
    <g clip-path="url(#p7445cdaac4)">
     <use xlink:href="#md57c797a40" x="79.11875" y="318.852729" style="fill: #2ca02c; stroke: #2ca02c"/>
     <use xlink:href="#md57c797a40" x="108.09375" y="322.478031" style="fill: #2ca02c; stroke: #2ca02c"/>
     <use xlink:href="#md57c797a40" x="137.06875" y="320.850601" style="fill: #2ca02c; stroke: #2ca02c"/>
     <use xlink:href="#md57c797a40" x="166.04375" y="318.016962" style="fill: #2ca02c; stroke: #2ca02c"/>
     <use xlink:href="#md57c797a40" x="195.01875" y="319.902403" style="fill: #2ca02c; stroke: #2ca02c"/>
     <use xlink:href="#md57c797a40" x="223.99375" y="322.421628" style="fill: #2ca02c; stroke: #2ca02c"/>
     <use xlink:href="#md57c797a40" x="252.96875" y="318.781143" style="fill: #2ca02c; stroke: #2ca02c"/>
     <use xlink:href="#md57c797a40" x="281.94375" y="318.136608" style="fill: #2ca02c; stroke: #2ca02c"/>
     <use xlink:href="#md57c797a40" x="310.91875" y="316.385316" style="fill: #2ca02c; stroke: #2ca02c"/>
     <use xlink:href="#md57c797a40" x="339.89375" y="322.620307" style="fill: #2ca02c; stroke: #2ca02c"/>
     <use xlink:href="#md57c797a40" x="368.86875" y="321.632839" style="fill: #2ca02c; stroke: #2ca02c"/>
     <use xlink:href="#md57c797a40" x="397.84375" y="320.431033" style="fill: #2ca02c; stroke: #2ca02c"/>
     <use xlink:href="#md57c797a40" x="426.81875" y="316.449528" style="fill: #2ca02c; stroke: #2ca02c"/>
     <use xlink:href="#md57c797a40" x="455.79375" y="322.692789" style="fill: #2ca02c; stroke: #2ca02c"/>
     <use xlink:href="#md57c797a40" x="484.76875" y="321.055311" style="fill: #2ca02c; stroke: #2ca02c"/>
     <use xlink:href="#md57c797a40" x="513.74375" y="321.572991" style="fill: #2ca02c; stroke: #2ca02c"/>
     <use xlink:href="#md57c797a40" x="542.71875" y="320.082195" style="fill: #2ca02c; stroke: #2ca02c"/>
     <use xlink:href="#md57c797a40" x="571.69375" y="318.74238" style="fill: #2ca02c; stroke: #2ca02c"/>
     <use xlink:href="#md57c797a40" x="600.66875" y="320.924112" style="fill: #2ca02c; stroke: #2ca02c"/>
     <use xlink:href="#md57c797a40" x="629.64375" y="321.654128" style="fill: #2ca02c; stroke: #2ca02c"/>
     <use xlink:href="#md57c797a40" x="658.61875" y="321.344656" style="fill: #2ca02c; stroke: #2ca02c"/>
    </g>
   </g>
   <g id="line2d_38">
    <path d="M 79.11875 361.351576 
L 108.09375 361.66519 
L 137.06875 361.700178 
L 166.04375 362.02628 
L 195.01875 361.792966 
L 223.99375 362.215421 
L 252.96875 361.754214 
L 281.94375 361.489517 
L 310.91875 361.340658 
L 339.89375 362.302311 
L 368.86875 362.202285 
L 397.84375 361.20764 
L 426.81875 361.37034 
L 455.79375 362.326165 
L 484.76875 361.963027 
L 513.74375 362.180922 
L 542.71875 361.650445 
L 571.69375 362.242994 
L 600.66875 362.230674 
L 629.64375 362.232485 
L 658.61875 361.927465 
" clip-path="url(#p7445cdaac4)" style="fill: none; stroke: #d62728; stroke-width: 2; stroke-linecap: square"/>
    <defs>
     <path id="m548068aaa7" d="M 0 3 
C 0.795609 3 1.55874 2.683901 2.12132 2.12132 
C 2.683901 1.55874 3 0.795609 3 0 
C 3 -0.795609 2.683901 -1.55874 2.12132 -2.12132 
C 1.55874 -2.683901 0.795609 -3 0 -3 
C -0.795609 -3 -1.55874 -2.683901 -2.12132 -2.12132 
C -2.683901 -1.55874 -3 -0.795609 -3 0 
C -3 0.795609 -2.683901 1.55874 -2.12132 2.12132 
C -1.55874 2.683901 -0.795609 3 0 3 
z
" style="stroke: #d62728"/>
    </defs>
    <g clip-path="url(#p7445cdaac4)">
     <use xlink:href="#m548068aaa7" x="79.11875" y="361.351576" style="fill: #d62728; stroke: #d62728"/>
     <use xlink:href="#m548068aaa7" x="108.09375" y="361.66519" style="fill: #d62728; stroke: #d62728"/>
     <use xlink:href="#m548068aaa7" x="137.06875" y="361.700178" style="fill: #d62728; stroke: #d62728"/>
     <use xlink:href="#m548068aaa7" x="166.04375" y="362.02628" style="fill: #d62728; stroke: #d62728"/>
     <use xlink:href="#m548068aaa7" x="195.01875" y="361.792966" style="fill: #d62728; stroke: #d62728"/>
     <use xlink:href="#m548068aaa7" x="223.99375" y="362.215421" style="fill: #d62728; stroke: #d62728"/>
     <use xlink:href="#m548068aaa7" x="252.96875" y="361.754214" style="fill: #d62728; stroke: #d62728"/>
     <use xlink:href="#m548068aaa7" x="281.94375" y="361.489517" style="fill: #d62728; stroke: #d62728"/>
     <use xlink:href="#m548068aaa7" x="310.91875" y="361.340658" style="fill: #d62728; stroke: #d62728"/>
     <use xlink:href="#m548068aaa7" x="339.89375" y="362.302311" style="fill: #d62728; stroke: #d62728"/>
     <use xlink:href="#m548068aaa7" x="368.86875" y="362.202285" style="fill: #d62728; stroke: #d62728"/>
     <use xlink:href="#m548068aaa7" x="397.84375" y="361.20764" style="fill: #d62728; stroke: #d62728"/>
     <use xlink:href="#m548068aaa7" x="426.81875" y="361.37034" style="fill: #d62728; stroke: #d62728"/>
     <use xlink:href="#m548068aaa7" x="455.79375" y="362.326165" style="fill: #d62728; stroke: #d62728"/>
     <use xlink:href="#m548068aaa7" x="484.76875" y="361.963027" style="fill: #d62728; stroke: #d62728"/>
     <use xlink:href="#m548068aaa7" x="513.74375" y="362.180922" style="fill: #d62728; stroke: #d62728"/>
     <use xlink:href="#m548068aaa7" x="542.71875" y="361.650445" style="fill: #d62728; stroke: #d62728"/>
     <use xlink:href="#m548068aaa7" x="571.69375" y="362.242994" style="fill: #d62728; stroke: #d62728"/>
     <use xlink:href="#m548068aaa7" x="600.66875" y="362.230674" style="fill: #d62728; stroke: #d62728"/>
     <use xlink:href="#m548068aaa7" x="629.64375" y="362.232485" style="fill: #d62728; stroke: #d62728"/>
     <use xlink:href="#m548068aaa7" x="658.61875" y="361.927465" style="fill: #d62728; stroke: #d62728"/>
    </g>
   </g>
   <g id="line2d_39">
    <path d="M 79.11875 369.192325 
L 108.09375 370.345398 
L 137.06875 369.139865 
L 166.04375 368.930853 
L 195.01875 369.538255 
L 223.99375 370.332275 
L 252.96875 369.178779 
L 281.94375 368.966829 
L 310.91875 369.3558 
L 339.89375 369.472149 
L 368.86875 369.382035 
L 397.84375 368.769635 
L 426.81875 369.371798 
L 455.79375 369.508179 
L 484.76875 369.183171 
L 513.74375 369.374868 
L 542.71875 369.593666 
L 571.69375 369.160053 
L 600.66875 369.847351 
L 629.64375 369.398889 
L 658.61875 369.299388 
" clip-path="url(#p7445cdaac4)" style="fill: none; stroke: #9467bd; stroke-width: 2; stroke-linecap: square"/>
    <defs>
     <path id="m4df99ad023" d="M 0 3 
C 0.795609 3 1.55874 2.683901 2.12132 2.12132 
C 2.683901 1.55874 3 0.795609 3 0 
C 3 -0.795609 2.683901 -1.55874 2.12132 -2.12132 
C 1.55874 -2.683901 0.795609 -3 0 -3 
C -0.795609 -3 -1.55874 -2.683901 -2.12132 -2.12132 
C -2.683901 -1.55874 -3 -0.795609 -3 0 
C -3 0.795609 -2.683901 1.55874 -2.12132 2.12132 
C -1.55874 2.683901 -0.795609 3 0 3 
z
" style="stroke: #9467bd"/>
    </defs>
    <g clip-path="url(#p7445cdaac4)">
     <use xlink:href="#m4df99ad023" x="79.11875" y="369.192325" style="fill: #9467bd; stroke: #9467bd"/>
     <use xlink:href="#m4df99ad023" x="108.09375" y="370.345398" style="fill: #9467bd; stroke: #9467bd"/>
     <use xlink:href="#m4df99ad023" x="137.06875" y="369.139865" style="fill: #9467bd; stroke: #9467bd"/>
     <use xlink:href="#m4df99ad023" x="166.04375" y="368.930853" style="fill: #9467bd; stroke: #9467bd"/>
     <use xlink:href="#m4df99ad023" x="195.01875" y="369.538255" style="fill: #9467bd; stroke: #9467bd"/>
     <use xlink:href="#m4df99ad023" x="223.99375" y="370.332275" style="fill: #9467bd; stroke: #9467bd"/>
     <use xlink:href="#m4df99ad023" x="252.96875" y="369.178779" style="fill: #9467bd; stroke: #9467bd"/>
     <use xlink:href="#m4df99ad023" x="281.94375" y="368.966829" style="fill: #9467bd; stroke: #9467bd"/>
     <use xlink:href="#m4df99ad023" x="310.91875" y="369.3558" style="fill: #9467bd; stroke: #9467bd"/>
     <use xlink:href="#m4df99ad023" x="339.89375" y="369.472149" style="fill: #9467bd; stroke: #9467bd"/>
     <use xlink:href="#m4df99ad023" x="368.86875" y="369.382035" style="fill: #9467bd; stroke: #9467bd"/>
     <use xlink:href="#m4df99ad023" x="397.84375" y="368.769635" style="fill: #9467bd; stroke: #9467bd"/>
     <use xlink:href="#m4df99ad023" x="426.81875" y="369.371798" style="fill: #9467bd; stroke: #9467bd"/>
     <use xlink:href="#m4df99ad023" x="455.79375" y="369.508179" style="fill: #9467bd; stroke: #9467bd"/>
     <use xlink:href="#m4df99ad023" x="484.76875" y="369.183171" style="fill: #9467bd; stroke: #9467bd"/>
     <use xlink:href="#m4df99ad023" x="513.74375" y="369.374868" style="fill: #9467bd; stroke: #9467bd"/>
     <use xlink:href="#m4df99ad023" x="542.71875" y="369.593666" style="fill: #9467bd; stroke: #9467bd"/>
     <use xlink:href="#m4df99ad023" x="571.69375" y="369.160053" style="fill: #9467bd; stroke: #9467bd"/>
     <use xlink:href="#m4df99ad023" x="600.66875" y="369.847351" style="fill: #9467bd; stroke: #9467bd"/>
     <use xlink:href="#m4df99ad023" x="629.64375" y="369.398889" style="fill: #9467bd; stroke: #9467bd"/>
     <use xlink:href="#m4df99ad023" x="658.61875" y="369.299388" style="fill: #9467bd; stroke: #9467bd"/>
    </g>
   </g>
   <g id="line2d_40">
    <path d="M 79.11875 46.11375 
L 108.09375 39.235266 
L 137.06875 45.091419 
L 166.04375 56.034383 
L 195.01875 51.010802 
L 223.99375 38.890852 
L 252.96875 45.724307 
L 281.94375 56.585676 
L 310.91875 48.475774 
L 339.89375 39.945622 
L 368.86875 41.892801 
L 397.84375 53.55076 
L 426.81875 48.808499 
L 455.79375 40.26955 
L 484.76875 45.994842 
L 513.74375 41.709567 
L 542.71875 51.903017 
L 571.69375 45.595412 
L 600.66875 45.419127 
L 629.64375 42.145607 
L 658.61875 40.727563 
" clip-path="url(#p7445cdaac4)" style="fill: none; stroke: #8c564b; stroke-width: 2; stroke-linecap: square"/>
    <defs>
     <path id="m971ca15e04" d="M 0 3 
C 0.795609 3 1.55874 2.683901 2.12132 2.12132 
C 2.683901 1.55874 3 0.795609 3 0 
C 3 -0.795609 2.683901 -1.55874 2.12132 -2.12132 
C 1.55874 -2.683901 0.795609 -3 0 -3 
C -0.795609 -3 -1.55874 -2.683901 -2.12132 -2.12132 
C -2.683901 -1.55874 -3 -0.795609 -3 0 
C -3 0.795609 -2.683901 1.55874 -2.12132 2.12132 
C -1.55874 2.683901 -0.795609 3 0 3 
z
" style="stroke: #8c564b"/>
    </defs>
    <g clip-path="url(#p7445cdaac4)">
     <use xlink:href="#m971ca15e04" x="79.11875" y="46.11375" style="fill: #8c564b; stroke: #8c564b"/>
     <use xlink:href="#m971ca15e04" x="108.09375" y="39.235266" style="fill: #8c564b; stroke: #8c564b"/>
     <use xlink:href="#m971ca15e04" x="137.06875" y="45.091419" style="fill: #8c564b; stroke: #8c564b"/>
     <use xlink:href="#m971ca15e04" x="166.04375" y="56.034383" style="fill: #8c564b; stroke: #8c564b"/>
     <use xlink:href="#m971ca15e04" x="195.01875" y="51.010802" style="fill: #8c564b; stroke: #8c564b"/>
     <use xlink:href="#m971ca15e04" x="223.99375" y="38.890852" style="fill: #8c564b; stroke: #8c564b"/>
     <use xlink:href="#m971ca15e04" x="252.96875" y="45.724307" style="fill: #8c564b; stroke: #8c564b"/>
     <use xlink:href="#m971ca15e04" x="281.94375" y="56.585676" style="fill: #8c564b; stroke: #8c564b"/>
     <use xlink:href="#m971ca15e04" x="310.91875" y="48.475774" style="fill: #8c564b; stroke: #8c564b"/>
     <use xlink:href="#m971ca15e04" x="339.89375" y="39.945622" style="fill: #8c564b; stroke: #8c564b"/>
     <use xlink:href="#m971ca15e04" x="368.86875" y="41.892801" style="fill: #8c564b; stroke: #8c564b"/>
     <use xlink:href="#m971ca15e04" x="397.84375" y="53.55076" style="fill: #8c564b; stroke: #8c564b"/>
     <use xlink:href="#m971ca15e04" x="426.81875" y="48.808499" style="fill: #8c564b; stroke: #8c564b"/>
     <use xlink:href="#m971ca15e04" x="455.79375" y="40.26955" style="fill: #8c564b; stroke: #8c564b"/>
     <use xlink:href="#m971ca15e04" x="484.76875" y="45.994842" style="fill: #8c564b; stroke: #8c564b"/>
     <use xlink:href="#m971ca15e04" x="513.74375" y="41.709567" style="fill: #8c564b; stroke: #8c564b"/>
     <use xlink:href="#m971ca15e04" x="542.71875" y="51.903017" style="fill: #8c564b; stroke: #8c564b"/>
     <use xlink:href="#m971ca15e04" x="571.69375" y="45.595412" style="fill: #8c564b; stroke: #8c564b"/>
     <use xlink:href="#m971ca15e04" x="600.66875" y="45.419127" style="fill: #8c564b; stroke: #8c564b"/>
     <use xlink:href="#m971ca15e04" x="629.64375" y="42.145607" style="fill: #8c564b; stroke: #8c564b"/>
     <use xlink:href="#m971ca15e04" x="658.61875" y="40.727563" style="fill: #8c564b; stroke: #8c564b"/>
    </g>
   </g>
   <g id="patch_3">
    <path d="M 50.14375 386.918125 
L 50.14375 22.318125 
" style="fill: none; stroke: #000000; stroke-width: 0.8; stroke-linejoin: miter; stroke-linecap: square"/>
   </g>
   <g id="patch_4">
    <path d="M 687.59375 386.918125 
L 687.59375 22.318125 
" style="fill: none; stroke: #000000; stroke-width: 0.8; stroke-linejoin: miter; stroke-linecap: square"/>
   </g>
   <g id="patch_5">
    <path d="M 50.14375 386.918125 
L 687.59375 386.918125 
" style="fill: none; stroke: #000000; stroke-width: 0.8; stroke-linejoin: miter; stroke-linecap: square"/>
   </g>
   <g id="patch_6">
    <path d="M 50.14375 22.318125 
L 687.59375 22.318125 
" style="fill: none; stroke: #000000; stroke-width: 0.8; stroke-linejoin: miter; stroke-linecap: square"/>
   </g>
   <g id="text_20">
    <!-- UK arable area shares — included Paper 1 crops -->
    <g transform="translate(224.574375 16.318125) scale(0.12 -0.12)">
     <defs>
      <path id="DejaVuSans-55" d="M 556 4666 
L 1191 4666 
L 1191 1831 
Q 1191 1081 1462 751 
Q 1734 422 2344 422 
Q 2950 422 3222 751 
Q 3494 1081 3494 1831 
L 3494 4666 
L 4128 4666 
L 4128 1753 
Q 4128 841 3676 375 
Q 3225 -91 2344 -91 
Q 1459 -91 1007 375 
Q 556 841 556 1753 
L 556 4666 
z
" transform="scale(0.015625)"/>
      <path id="DejaVuSans-4b" d="M 628 4666 
L 1259 4666 
L 1259 2694 
L 3353 4666 
L 4166 4666 
L 1850 2491 
L 4331 0 
L 3500 0 
L 1259 2247 
L 1259 0 
L 628 0 
L 628 4666 
z
" transform="scale(0.015625)"/>
      <path id="DejaVuSans-2014" d="M 313 1978 
L 6088 1978 
L 6088 1528 
L 313 1528 
L 313 1978 
z
" transform="scale(0.015625)"/>
      <path id="DejaVuSans-69" d="M 603 3500 
L 1178 3500 
L 1178 0 
L 603 0 
L 603 3500 
z
M 603 4863 
L 1178 4863 
L 1178 4134 
L 603 4134 
L 603 4863 
z
" transform="scale(0.015625)"/>
      <path id="DejaVuSans-63" d="M 3122 3366 
L 3122 2828 
Q 2878 2963 2633 3030 
Q 2388 3097 2138 3097 
Q 1578 3097 1268 2742 
Q 959 2388 959 1747 
Q 959 1106 1268 751 
Q 1578 397 2138 397 
Q 2388 397 2633 464 
Q 2878 531 3122 666 
L 3122 134 
Q 2881 22 2623 -34 
Q 2366 -91 2075 -91 
Q 1284 -91 818 406 
Q 353 903 353 1747 
Q 353 2603 823 3093 
Q 1294 3584 2113 3584 
Q 2378 3584 2631 3529 
Q 2884 3475 3122 3366 
z
" transform="scale(0.015625)"/>
      <path id="DejaVuSans-75" d="M 544 1381 
L 544 3500 
L 1119 3500 
L 1119 1403 
Q 1119 906 1312 657 
Q 1506 409 1894 409 
Q 2359 409 2629 706 
Q 2900 1003 2900 1516 
L 2900 3500 
L 3475 3500 
L 3475 0 
L 2900 0 
L 2900 538 
Q 2691 219 2414 64 
Q 2138 -91 1772 -91 
Q 1169 -91 856 284 
Q 544 659 544 1381 
z
M 1991 3584 
L 1991 3584 
z
" transform="scale(0.015625)"/>
      <path id="DejaVuSans-64" d="M 2906 2969 
L 2906 4863 
L 3481 4863 
L 3481 0 
L 2906 0 
L 2906 525 
Q 2725 213 2448 61 
Q 2172 -91 1784 -91 
Q 1150 -91 751 415 
Q 353 922 353 1747 
Q 353 2572 751 3078 
Q 1150 3584 1784 3584 
Q 2172 3584 2448 3432 
Q 2725 3281 2906 2969 
z
M 947 1747 
Q 947 1113 1208 752 
Q 1469 391 1925 391 
Q 2381 391 2643 752 
Q 2906 1113 2906 1747 
Q 2906 2381 2643 2742 
Q 2381 3103 1925 3103 
Q 1469 3103 1208 2742 
Q 947 2381 947 1747 
z
" transform="scale(0.015625)"/>
      <path id="DejaVuSans-50" d="M 1259 4147 
L 1259 2394 
L 2053 2394 
Q 2494 2394 2734 2622 
Q 2975 2850 2975 3272 
Q 2975 3691 2734 3919 
Q 2494 4147 2053 4147 
L 1259 4147 
z
M 628 4666 
L 2053 4666 
Q 2838 4666 3239 4311 
Q 3641 3956 3641 3272 
Q 3641 2581 3239 2228 
Q 2838 1875 2053 1875 
L 1259 1875 
L 1259 0 
L 628 0 
L 628 4666 
z
" transform="scale(0.015625)"/>
      <path id="DejaVuSans-70" d="M 1159 525 
L 1159 -1331 
L 581 -1331 
L 581 3500 
L 1159 3500 
L 1159 2969 
Q 1341 3281 1617 3432 
Q 1894 3584 2278 3584 
Q 2916 3584 3314 3078 
Q 3713 2572 3713 1747 
Q 3713 922 3314 415 
Q 2916 -91 2278 -91 
Q 1894 -91 1617 61 
Q 1341 213 1159 525 
z
M 3116 1747 
Q 3116 2381 2855 2742 
Q 2594 3103 2138 3103 
Q 1681 3103 1420 2742 
Q 1159 2381 1159 1747 
Q 1159 1113 1420 752 
Q 1681 391 2138 391 
Q 2594 391 2855 752 
Q 3116 1113 3116 1747 
z
" transform="scale(0.015625)"/>
      <path id="DejaVuSans-6f" d="M 1959 3097 
Q 1497 3097 1228 2736 
Q 959 2375 959 1747 
Q 959 1119 1226 758 
Q 1494 397 1959 397 
Q 2419 397 2687 759 
Q 2956 1122 2956 1747 
Q 2956 2369 2687 2733 
Q 2419 3097 1959 3097 
z
M 1959 3584 
Q 2709 3584 3137 3096 
Q 3566 2609 3566 1747 
Q 3566 888 3137 398 
Q 2709 -91 1959 -91 
Q 1206 -91 779 398 
Q 353 888 353 1747 
Q 353 2609 779 3096 
Q 1206 3584 1959 3584 
z
" transform="scale(0.015625)"/>
     </defs>
     <use xlink:href="#DejaVuSans-55"/>
     <use xlink:href="#DejaVuSans-4b" transform="translate(73.193359 0)"/>
     <use xlink:href="#DejaVuSans-20" transform="translate(138.769531 0)"/>
     <use xlink:href="#DejaVuSans-61" transform="translate(170.556641 0)"/>
     <use xlink:href="#DejaVuSans-72" transform="translate(231.835938 0)"/>
     <use xlink:href="#DejaVuSans-61" transform="translate(272.949219 0)"/>
     <use xlink:href="#DejaVuSans-62" transform="translate(334.228516 0)"/>
     <use xlink:href="#DejaVuSans-6c" transform="translate(397.705078 0)"/>
     <use xlink:href="#DejaVuSans-65" transform="translate(425.488281 0)"/>
     <use xlink:href="#DejaVuSans-20" transform="translate(487.011719 0)"/>
     <use xlink:href="#DejaVuSans-61" transform="translate(518.798828 0)"/>
     <use xlink:href="#DejaVuSans-72" transform="translate(580.078125 0)"/>
     <use xlink:href="#DejaVuSans-65" transform="translate(618.941406 0)"/>
     <use xlink:href="#DejaVuSans-61" transform="translate(680.464844 0)"/>
     <use xlink:href="#DejaVuSans-20" transform="translate(741.744141 0)"/>
     <use xlink:href="#DejaVuSans-73" transform="translate(773.53125 0)"/>
     <use xlink:href="#DejaVuSans-68" transform="translate(825.630859 0)"/>
     <use xlink:href="#DejaVuSans-61" transform="translate(889.009766 0)"/>
     <use xlink:href="#DejaVuSans-72" transform="translate(950.289062 0)"/>
     <use xlink:href="#DejaVuSans-65" transform="translate(989.152344 0)"/>
     <use xlink:href="#DejaVuSans-73" transform="translate(1050.675781 0)"/>
     <use xlink:href="#DejaVuSans-20" transform="translate(1102.775391 0)"/>
     <use xlink:href="#DejaVuSans-2014" transform="translate(1134.5625 0)"/>
     <use xlink:href="#DejaVuSans-20" transform="translate(1234.5625 0)"/>
     <use xlink:href="#DejaVuSans-69" transform="translate(1266.349609 0)"/>
     <use xlink:href="#DejaVuSans-6e" transform="translate(1294.132812 0)"/>
     <use xlink:href="#DejaVuSans-63" transform="translate(1357.511719 0)"/>
     <use xlink:href="#DejaVuSans-6c" transform="translate(1412.492188 0)"/>
     <use xlink:href="#DejaVuSans-75" transform="translate(1440.275391 0)"/>
     <use xlink:href="#DejaVuSans-64" transform="translate(1503.654297 0)"/>
     <use xlink:href="#DejaVuSans-65" transform="translate(1567.130859 0)"/>
     <use xlink:href="#DejaVuSans-64" transform="translate(1628.654297 0)"/>
     <use xlink:href="#DejaVuSans-20" transform="translate(1692.130859 0)"/>
     <use xlink:href="#DejaVuSans-50" transform="translate(1723.917969 0)"/>
     <use xlink:href="#DejaVuSans-61" transform="translate(1779.720703 0)"/>
     <use xlink:href="#DejaVuSans-70" transform="translate(1841 0)"/>
     <use xlink:href="#DejaVuSans-65" transform="translate(1904.476562 0)"/>
     <use xlink:href="#DejaVuSans-72" transform="translate(1966 0)"/>
     <use xlink:href="#DejaVuSans-20" transform="translate(2007.113281 0)"/>
     <use xlink:href="#DejaVuSans-31" transform="translate(2038.900391 0)"/>
     <use xlink:href="#DejaVuSans-20" transform="translate(2102.523438 0)"/>
     <use xlink:href="#DejaVuSans-63" transform="translate(2134.310547 0)"/>
     <use xlink:href="#DejaVuSans-72" transform="translate(2189.291016 0)"/>
     <use xlink:href="#DejaVuSans-6f" transform="translate(2228.154297 0)"/>
     <use xlink:href="#DejaVuSans-70" transform="translate(2289.335938 0)"/>
     <use xlink:href="#DejaVuSans-73" transform="translate(2352.8125 0)"/>
    </g>
   </g>
   <g id="legend_1">
    <g id="patch_7">
     <path d="M 587.91875 99.618125 
L 681.99375 99.618125 
Q 683.59375 99.618125 683.59375 98.018125 
L 683.59375 27.918125 
Q 683.59375 26.318125 681.99375 26.318125 
L 587.91875 26.318125 
Q 586.31875 26.318125 586.31875 27.918125 
L 586.31875 98.018125 
Q 586.31875 99.618125 587.91875 99.618125 
z
" style="fill: #ffffff; opacity: 0.8; stroke: #cccccc; stroke-linejoin: miter"/>
    </g>
    <g id="line2d_41">
     <path d="M 589.51875 32.796875 
L 597.51875 32.796875 
L 605.51875 32.796875 
" style="fill: none; stroke: #1f77b4; stroke-width: 2; stroke-linecap: square"/>
     <g>
      <use xlink:href="#md874ea08d4" x="597.51875" y="32.796875" style="fill: #1f77b4; stroke: #1f77b4"/>
     </g>
    </g>
    <g id="text_21">
     <!-- barley -->
     <g transform="translate(611.91875 35.596875) scale(0.08 -0.08)">
      <defs>
       <path id="DejaVuSans-79" d="M 2059 -325 
Q 1816 -950 1584 -1140 
Q 1353 -1331 966 -1331 
L 506 -1331 
L 506 -850 
L 844 -850 
Q 1081 -850 1212 -737 
Q 1344 -625 1503 -206 
L 1606 56 
L 191 3500 
L 800 3500 
L 1894 763 
L 2988 3500 
L 3597 3500 
L 2059 -325 
z
" transform="scale(0.015625)"/>
      </defs>
      <use xlink:href="#DejaVuSans-62"/>
      <use xlink:href="#DejaVuSans-61" transform="translate(63.476562 0)"/>
      <use xlink:href="#DejaVuSans-72" transform="translate(124.755859 0)"/>
      <use xlink:href="#DejaVuSans-6c" transform="translate(165.869141 0)"/>
      <use xlink:href="#DejaVuSans-65" transform="translate(193.652344 0)"/>
      <use xlink:href="#DejaVuSans-79" transform="translate(255.175781 0)"/>
     </g>
    </g>
    <g id="line2d_42">
     <path d="M 589.51875 44.539375 
L 597.51875 44.539375 
L 605.51875 44.539375 
" style="fill: none; stroke: #ff7f0e; stroke-width: 2; stroke-linecap: square"/>
     <g>
      <use xlink:href="#m2d6bc4a08f" x="597.51875" y="44.539375" style="fill: #ff7f0e; stroke: #ff7f0e"/>
     </g>
    </g>
    <g id="text_22">
     <!-- oats -->
     <g transform="translate(611.91875 47.339375) scale(0.08 -0.08)">
      <defs>
       <path id="DejaVuSans-74" d="M 1172 4494 
L 1172 3500 
L 2356 3500 
L 2356 3053 
L 1172 3053 
L 1172 1153 
Q 1172 725 1289 603 
Q 1406 481 1766 481 
L 2356 481 
L 2356 0 
L 1766 0 
Q 1100 0 847 248 
Q 594 497 594 1153 
L 594 3053 
L 172 3053 
L 172 3500 
L 594 3500 
L 594 4494 
L 1172 4494 
z
" transform="scale(0.015625)"/>
      </defs>
      <use xlink:href="#DejaVuSans-6f"/>
      <use xlink:href="#DejaVuSans-61" transform="translate(61.181641 0)"/>
      <use xlink:href="#DejaVuSans-74" transform="translate(122.460938 0)"/>
      <use xlink:href="#DejaVuSans-73" transform="translate(161.669922 0)"/>
     </g>
    </g>
    <g id="line2d_43">
     <path d="M 589.51875 56.281875 
L 597.51875 56.281875 
L 605.51875 56.281875 
" style="fill: none; stroke: #2ca02c; stroke-width: 2; stroke-linecap: square"/>
     <g>
      <use xlink:href="#md57c797a40" x="597.51875" y="56.281875" style="fill: #2ca02c; stroke: #2ca02c"/>
     </g>
    </g>
    <g id="text_23">
     <!-- oilseed_rape -->
     <g transform="translate(611.91875 59.081875) scale(0.08 -0.08)">
      <defs>
       <path id="DejaVuSans-5f" d="M 3263 -1063 
L 3263 -1509 
L -63 -1509 
L -63 -1063 
L 3263 -1063 
z
" transform="scale(0.015625)"/>
      </defs>
      <use xlink:href="#DejaVuSans-6f"/>
      <use xlink:href="#DejaVuSans-69" transform="translate(61.181641 0)"/>
      <use xlink:href="#DejaVuSans-6c" transform="translate(88.964844 0)"/>
      <use xlink:href="#DejaVuSans-73" transform="translate(116.748047 0)"/>
      <use xlink:href="#DejaVuSans-65" transform="translate(168.847656 0)"/>
      <use xlink:href="#DejaVuSans-65" transform="translate(230.371094 0)"/>
      <use xlink:href="#DejaVuSans-64" transform="translate(291.894531 0)"/>
      <use xlink:href="#DejaVuSans-5f" transform="translate(355.371094 0)"/>
      <use xlink:href="#DejaVuSans-72" transform="translate(405.371094 0)"/>
      <use xlink:href="#DejaVuSans-61" transform="translate(446.484375 0)"/>
      <use xlink:href="#DejaVuSans-70" transform="translate(507.763672 0)"/>
      <use xlink:href="#DejaVuSans-65" transform="translate(571.240234 0)"/>
     </g>
    </g>
    <g id="line2d_44">
     <path d="M 589.51875 68.246875 
L 597.51875 68.246875 
L 605.51875 68.246875 
" style="fill: none; stroke: #d62728; stroke-width: 2; stroke-linecap: square"/>
     <g>
      <use xlink:href="#m548068aaa7" x="597.51875" y="68.246875" style="fill: #d62728; stroke: #d62728"/>
     </g>
    </g>
    <g id="text_24">
     <!-- peas_field_beans -->
     <g transform="translate(611.91875 71.046875) scale(0.08 -0.08)">
      <defs>
       <path id="DejaVuSans-66" d="M 2375 4863 
L 2375 4384 
L 1825 4384 
Q 1516 4384 1395 4259 
Q 1275 4134 1275 3809 
L 1275 3500 
L 2222 3500 
L 2222 3053 
L 1275 3053 
L 1275 0 
L 697 0 
L 697 3053 
L 147 3053 
L 147 3500 
L 697 3500 
L 697 3744 
Q 697 4328 969 4595 
Q 1241 4863 1831 4863 
L 2375 4863 
z
" transform="scale(0.015625)"/>
      </defs>
      <use xlink:href="#DejaVuSans-70"/>
      <use xlink:href="#DejaVuSans-65" transform="translate(63.476562 0)"/>
      <use xlink:href="#DejaVuSans-61" transform="translate(125 0)"/>
      <use xlink:href="#DejaVuSans-73" transform="translate(186.279297 0)"/>
      <use xlink:href="#DejaVuSans-5f" transform="translate(238.378906 0)"/>
      <use xlink:href="#DejaVuSans-66" transform="translate(288.378906 0)"/>
      <use xlink:href="#DejaVuSans-69" transform="translate(323.583984 0)"/>
      <use xlink:href="#DejaVuSans-65" transform="translate(351.367188 0)"/>
      <use xlink:href="#DejaVuSans-6c" transform="translate(412.890625 0)"/>
      <use xlink:href="#DejaVuSans-64" transform="translate(440.673828 0)"/>
      <use xlink:href="#DejaVuSans-5f" transform="translate(504.150391 0)"/>
      <use xlink:href="#DejaVuSans-62" transform="translate(554.150391 0)"/>
      <use xlink:href="#DejaVuSans-65" transform="translate(617.626953 0)"/>
      <use xlink:href="#DejaVuSans-61" transform="translate(679.150391 0)"/>
      <use xlink:href="#DejaVuSans-6e" transform="translate(740.429688 0)"/>
      <use xlink:href="#DejaVuSans-73" transform="translate(803.808594 0)"/>
     </g>
    </g>
    <g id="line2d_45">
     <path d="M 589.51875 80.211875 
L 597.51875 80.211875 
L 605.51875 80.211875 
" style="fill: none; stroke: #9467bd; stroke-width: 2; stroke-linecap: square"/>
     <g>
      <use xlink:href="#m4df99ad023" x="597.51875" y="80.211875" style="fill: #9467bd; stroke: #9467bd"/>
     </g>
    </g>
    <g id="text_25">
     <!-- potatoes -->
     <g transform="translate(611.91875 83.011875) scale(0.08 -0.08)">
      <use xlink:href="#DejaVuSans-70"/>
      <use xlink:href="#DejaVuSans-6f" transform="translate(63.476562 0)"/>
      <use xlink:href="#DejaVuSans-74" transform="translate(124.658203 0)"/>
      <use xlink:href="#DejaVuSans-61" transform="translate(163.867188 0)"/>
      <use xlink:href="#DejaVuSans-74" transform="translate(225.146484 0)"/>
      <use xlink:href="#DejaVuSans-6f" transform="translate(264.355469 0)"/>
      <use xlink:href="#DejaVuSans-65" transform="translate(325.537109 0)"/>
      <use xlink:href="#DejaVuSans-73" transform="translate(387.060547 0)"/>
     </g>
    </g>
    <g id="line2d_46">
     <path d="M 589.51875 91.954375 
L 597.51875 91.954375 
L 605.51875 91.954375 
" style="fill: none; stroke: #8c564b; stroke-width: 2; stroke-linecap: square"/>
     <g>
      <use xlink:href="#m971ca15e04" x="597.51875" y="91.954375" style="fill: #8c564b; stroke: #8c564b"/>
     </g>
    </g>
    <g id="text_26">
     <!-- wheat -->
     <g transform="translate(611.91875 94.754375) scale(0.08 -0.08)">
      <defs>
       <path id="DejaVuSans-77" d="M 269 3500 
L 844 3500 
L 1563 769 
L 2278 3500 
L 2956 3500 
L 3675 769 
L 4391 3500 
L 4966 3500 
L 4050 0 
L 3372 0 
L 2619 2869 
L 1863 0 
L 1184 0 
L 269 3500 
z
" transform="scale(0.015625)"/>
      </defs>
      <use xlink:href="#DejaVuSans-77"/>
      <use xlink:href="#DejaVuSans-68" transform="translate(81.787109 0)"/>
      <use xlink:href="#DejaVuSans-65" transform="translate(145.166016 0)"/>
      <use xlink:href="#DejaVuSans-61" transform="translate(206.689453 0)"/>
      <use xlink:href="#DejaVuSans-74" transform="translate(267.96875 0)"/>
     </g>
    </g>
   </g>
  </g>
 </g>
 <defs>
  <clipPath id="p7445cdaac4">
   <rect x="50.14375" y="22.318125" width="637.45" height="364.6"/>
  </clipPath>
 </defs>
</svg>
